<svg id="Layer_1" data-name="Layer 1" xmlns="http://www.w3.org/2000/svg" viewBox="0 0 288.54 144.98"><defs><clipPath id="clip-path"><path style="fill:none" d="M0 0h288.53v144.98H0z"/></clipPath><style>.cls-2{fill:#dedede}.cls-3{fill:#b7b7b7}.cls-4{fill:#b8b8b8}.cls-5{fill:#c8c8c8}.cls-6{fill:#4b4b4b}.cls-7{fill:#8a8a8a}.cls-8{fill:#323232}.cls-9{fill:#636363}.cls-10{fill:#4d4d4d}.cls-11{fill:#6f6f6f}</style></defs><path class="cls-2" d="M243.85 0v17.12l14.9-8.56L243.85 0zM243.85 17.12l14.9 8.56-14.9 8.55V17.12z"/><path class="cls-2" d="m243.85 34.23 14.9 8.57-14.9 8.56V34.23z"/><path class="cls-3" d="m258.75 42.8-14.9-8.57 14.9-8.55V42.8z"/><path class="cls-4" d="m258.75 25.68-14.9-8.56 14.9-8.56v17.12z"/><path class="cls-2" d="m258.75 8.56 14.89 8.56-14.89 8.56V8.56zM258.75 25.68l14.89 8.55-14.89 8.57V25.68z"/><path class="cls-4" d="m273.64 34.23-14.89-8.55 14.89-8.56v17.11z"/><path class="cls-2" d="m273.64 34.23 14.9-8.55-14.9-8.56v17.11z"/><path class="cls-3" d="m243.85 34.23-14.89-8.55 14.89-8.56v17.11z"/><path class="cls-4" d="m243.85 0-14.89 8.56 14.89 8.56V0z"/><path class="cls-2" d="m228.96 8.56 14.89 8.56-14.89 8.56V8.56z"/><path class="cls-5" d="m228.96 42.8 14.89 8.56V34.23l-14.89 8.57z"/><path class="cls-2" d="M228.96 25.68V42.8l14.89-8.57-14.89-8.55z"/><path class="cls-5" d="m228.96 42.8-14.89-8.57 14.89-8.55V42.8z"/><path class="cls-3" d="m228.96 25.68-14.89-8.56 14.89-8.56v17.12z"/><path class="cls-2" d="m214.07 17.12 14.89 8.56-14.89 8.55V17.12z"/><path class="cls-5" d="m199.17 25.68 14.9 8.55V17.12l-14.9 8.56zM243.85 68.47l-14.89-8.56 14.89-8.55v17.11z"/><path class="cls-6" d="m228.96 42.8 14.89 8.56-14.89 8.55V42.8zM228.96 94.15l-14.89-8.56 14.89-8.55v17.11z"/><path class="cls-7" d="M214.07 34.23v17.13l14.89 8.55V42.8l-14.89-8.57z"/><path class="cls-8" d="M214.07 51.36v34.23l14.89-8.55V59.91l-14.89-8.55z"/><path class="cls-5" d="m214.07 51.36-14.9-8.56 14.9-8.57v17.13z"/><path class="cls-7" d="M199.17 25.68V42.8l14.9-8.57-14.9-8.55zM199.17 42.8v34.24l14.9 8.55V51.36l-14.9-8.56zM228.96 59.91v34.24l14.89 8.57V68.47l-14.89-8.56z"/><path class="cls-6" d="m258.75 59.91 14.89 8.56-14.89 8.57V59.91z"/><path class="cls-8" d="m273.64 68.47-14.89-8.56 14.89-8.55v17.11z"/><path class="cls-9" d="m258.75 59.92 14.89-8.56V68.5L258.75 77Zm-14.9-8.56v51.36L288.54 77V25.68Z"/><path class="cls-10" d="m145.09 95.8-4.91-4.91h4.91v4.91zM145.09 125.31l-4.91-4.92h4.91v4.92zM164.76 105.64l-4.92-4.92h4.92v4.92z"/><path class="cls-11" d="M150.01 85.97v-4.92h-9.83v9.84h4.91v-4.92h4.92zM140.18 110.55h4.91v9.83h-4.91zM145.09 120.39h9.84v4.92h-9.84zM140.18 100.72h9.84v4.92h-9.84zM150.01 105.64h4.91v4.92h-4.91zM150.01 85.97v4.92h-4.92v4.91h9.83v-9.83h-4.91z"/><path class="cls-10" d="m179.51 85.97 4.92-4.92v4.92h-4.92zM164.76 81.05l-4.92-4.92h4.92v4.92zM154.92 85.97h-4.91v-4.92l4.91 4.92zM164.76 90.89v4.91h-4.92l4.92-4.91zM154.92 105.64h-4.91v-4.92l4.91 4.92z"/><path class="cls-11" d="M164.76 100.72h9.83v4.92h-9.83zM159.84 95.8h4.92v4.92h-4.92zM179.51 85.97h4.92v19.67h-4.92zM184.43 81.05h4.92v4.92h-4.92zM159.84 71.21h4.92v4.92h-4.92z"/><g style="clip-path:url(#clip-path)"><path class="cls-11" d="M159.84 88.42v7.38l4.92-4.91v-2.47a2.46 2.46 0 1 1 2.46 2.47h-2.46v4.91h2.46a7.38 7.38 0 1 0-7.38-7.38"/><path class="cls-11" d="M164.76 76.13h9.83v4.92h-9.83z"/><path class="cls-9" d="m120.5 135.14-4.92-4.91h4.92v4.91zM115.58 125.31l4.92-4.92v4.92h-4.92zM86.08 85.97 91 81.05v4.92h-4.92zM100.83 85.97l-4.91-4.92v4.92h4.91zM68.45 81.05h6.95l-3.48 3.48-3.47-3.48zM130.34 115.47h-4.92v-4.92l4.92 4.92zM130.34 120.39h-4.92v4.92l4.92-4.92zM110.67 105.63l-4.92-4.91h4.92v4.91zM125.42 85.97l4.92-4.92v4.92h-4.92zM110.67 81.05l-4.92-4.92h4.92v4.92zM110.67 90.88v4.92h-4.92l4.92-4.92z"/><path class="cls-7" d="M115.58 125.3h4.92v4.92h-4.92zM120.5 130.23h9.84v4.91h-9.84zM115.58 110.55h9.84v4.92h-9.84zM120.5 120.39h4.92v4.92h-4.92zM125.42 115.47h4.92v4.92h-4.92zM120.5 105.63v-4.91h-9.83V95.8h-4.92v4.92h4.92v4.91h9.83zM125.42 85.97h4.92v19.66h-4.92zM130.34 81.05h4.92v4.92h-4.92zM105.75 71.21h4.92v4.92h-4.92zM113.13 81.05a7.39 7.39 0 0 0-7.38 7.37v7.38l4.92-4.91v-2.47a2.46 2.46 0 1 1 2.46 2.46h-2.46v4.92h2.46a7.38 7.38 0 0 0 0-14.75M110.67 76.13h9.84v4.92h-9.84zM0 81.05h9.84v4.92H0zM86.08 85.97h4.91v9.83h-4.91zM23.48 85.97h4.91v9.83h-4.91zM9.86 85.97h4.91v9.83H9.86zM95.92 85.97h4.91v9.83h-4.91zM91 81.05h4.92v4.92H91zM61.49 88.01l3.49 3.47 6.94-6.95-3.47-3.48-6.96 6.96z"/><path class="cls-7" transform="rotate(-45.01 77.152 86.261)" d="M74.69 81.35h4.92v9.83h-4.92z"/><path class="cls-9" d="m9.84 81.05 4.92 4.92H9.84v-4.92z"/><path class="cls-7" d="M93.46 100.72a7.38 7.38 0 1 0 7.37 7.39 7.37 7.37 0 0 0-7.36-7.38m0 9.83a2.46 2.46 0 1 1 2.46-2.46 2.47 2.47 0 0 1-2.46 2.45M23.07 100.72a7.38 7.38 0 1 0 7.38 7.38 7.37 7.37 0 0 0-7.36-7.38m0 9.83a2.46 2.46 0 1 1 2.45-2.47 2.47 2.47 0 0 1-2.45 2.45"/><path class="cls-9" d="m189.34 144.98-4.91-4.92h4.91v4.92zM209.02 135.14l-4.92-4.91h4.92v4.91zM204.1 115.47l4.92-4.91v4.91h-4.92zM189.34 115.47l-4.91-4.92v4.92h4.91zM233.6 115.47l-4.91-4.92v4.92h4.91zM166.8 110.56h6.96l-3.48 3.47-3.48-3.47z"/><path class="cls-7" d="M228.68 115.38v29.51l4.93.09v-29.51l-4.93-.09zM209.02 110.55h9.83v4.92h-9.83zM204.1 115.47v14.76h4.92v-4.92h9.83v-4.92h-9.83v-4.92h-4.92zM209.02 130.23h9.83v4.91h-9.83z"/><path class="cls-7" d="M223.77 110.55h4.92v4.92h-4.92z"/><path class="cls-9" d="m28.4 85.97-4.92-4.92v4.92h4.92z"/><path class="cls-7" d="M18.56 81.05h4.92v4.92h-4.92zM18.56 88.43h4.92v4.92h-4.92zM184.43 130.23h4.92v9.83h-4.92zM189.35 140.06h9.84v4.92h-9.84zM184.43 125.31h4.91v-9.84h-4.91v-4.92h-4.92v4.92h4.92v9.84z"/><path class="cls-7" transform="rotate(-45.04 165.066 115.783)" d="M160.14 113.32h9.84v4.92h-9.84z"/><path class="cls-7" transform="rotate(-44.98 175.493 115.776)" d="M173.03 110.86h4.92v9.83h-4.92z"/><path class="cls-7" d="M52.9 81.05h4.91V95.8H52.9zM194.27 110.55h4.91v14.75h-4.91zM32.29 81.05h9.84v4.92h-9.84zM42.16 85.97h4.91v9.84h-4.91z"/><path class="cls-9" d="m42.14 81.05 4.91 4.92h-4.92l.01-4.92z"/></g></svg>